<svg xmlns="http://www.w3.org/2000/svg" width="24" height="25" viewBox="0 0 24 25">
    <g fill="none" fill-rule="evenodd">
        <g fill="#FFF">
            <g>
                <g>
                    <g>
                        <path d="M15.777 8.223c.297.298.297.782 0 1.08L13.079 12l2.698 2.698c.297.297.297.78 0 1.079-.298.297-.782.297-1.08 0L12 13.079l-2.698 2.698c-.297.297-.78.297-1.079 0-.297-.298-.297-.782 0-1.08L10.921 12 8.223 9.302c-.297-.297-.297-.78 0-1.079.298-.297.782-.297 1.08 0L12 10.921l2.698-2.698c.297-.297.78-.297 1.079 0z" transform="translate(-169 -418) translate(61 358) translate(12 51) translate(96 10)"/>
                    </g>
                </g>
            </g>
        </g>
    </g>
</svg>
