<svg xmlns="http://www.w3.org/2000/svg" width="24" height="24" viewBox="0 0 24 24">
    <g fill="none" fill-rule="evenodd">
        <rect width="24" height="24" fill="#FFBE14" rx="12"/>
        <path fill="#FFF" fill-rule="nonzero" d="M11.816 15.338c.533 0 .85-.275.952-.825.059-.259.103-.868.132-.971.03-.103.07-.206.124-.31.053-.103.135-.216.244-.34.11-.124.255-.268.436-.432.656-.582 1.11-.995 1.364-1.24.253-.246.472-.538.656-.877.184-.338.276-.731.276-1.18 0-.571-.161-1.1-.484-1.586-.323-.486-.78-.87-1.372-1.153C13.552 6.141 12.869 6 12.096 6c-.832 0-1.56.17-2.184.507-.624.338-1.099.765-1.424 1.28C8.163 8.303 8 8.811 8 9.313c0 .243.103.469.308.678.205.208.457.313.756.313.507 0 .85-.299 1.032-.896.192-.57.427-1.002.704-1.296.277-.293.71-.44 1.296-.44.501 0 .91.146 1.228.436.317.29.476.648.476 1.07 0 .217-.052.418-.156.603-.104.185-.232.352-.384.503-.152.15-.399.374-.74.67-.39.338-.699.63-.928.876-.23.245-.413.53-.552.856-.139.325-.208 1.138-.208 1.582 0 .354.095.62.284.8.19.18.423.27.7.27zm.088 3.995c.315 0 .592-.105.832-.317.24-.211.36-.502.36-.872 0-.332-.115-.613-.344-.84-.23-.227-.512-.34-.848-.34-.341 0-.63.113-.864.34-.235.227-.352.508-.352.84 0 .376.121.668.364.876.243.209.527.313.852.313z"/>
    </g>
</svg>
