<svg xmlns="http://www.w3.org/2000/svg" width="24" height="24" viewBox="0 0 24 24">
    <g fill="none" fill-rule="evenodd">
        <rect width="24" height="24" fill="#FF5B1A" rx="12"/>
        <path fill="#FFF" d="M16.337 17.348c.225-.301.163-.727-.137-.952-.016-.012-.032-.023-.049-.033l-1.458-.905c.096-.08.192-.168.288-.264.4-.424.716-.93.948-1.518.232-.588.348-1.238.348-1.95s-.116-1.362-.348-1.95c-.232-.588-.548-1.092-.948-1.512-.4-.42-.876-.746-1.428-.978-.552-.232-1.144-.348-1.776-.348-.64 0-1.234.116-1.782.348-.548.232-1.022.558-1.422.978-.4.42-.716.924-.948 1.512-.232.588-.348 1.238-.348 1.95s.116 1.362.348 1.95c.232.588.548 1.092.948 1.512.4.42.874.746 1.422.978.548.232 1.142.348 1.782.348.536 0 1.044-.084 1.524-.252l1.97 1.276c.35.227.816.144 1.066-.19zm-4.56-2.178c-.408 0-.788-.082-1.14-.246-.352-.164-.66-.396-.924-.696-.264-.3-.472-.662-.624-1.086-.152-.424-.228-.896-.228-1.416 0-.52.076-.992.228-1.416.152-.424.36-.786.624-1.086.264-.3.572-.532.924-.696.352-.164.732-.246 1.14-.246.408 0 .788.082 1.14.246.352.164.66.396.924.696.264.3.472.662.624 1.086.152.424.228.896.228 1.416 0 .52-.076.992-.228 1.416-.152.424-.36.786-.624 1.086-.264.3-.572.532-.924.696-.352.164-.732.246-1.14.246z"/>
    </g>
</svg>
