<svg width="24" height="24" xmlns="http://www.w3.org/2000/svg">
    <path d="M18 1a3 3 0 0 1 3 3v1.25a.75.75 0 1 1-1.5 0V4a1.5 1.5 0 0 0-1.356-1.493L18 2.5H5a1.5 1.5 0 0 0-1.493 1.356L3.5 4v16a1.5 1.5 0 0 0 1.356 1.493L5 21.5h13a1.5 1.5 0 0 0 1.493-1.356L19.5 20v-1.25a.75.75 0 1 1 1.5 0V20a3 3 0 0 1-3 3H5a3 3 0 0 1-3-3V4a3 3 0 0 1 3-3h13zm.186 6.162 4.161 4.16a.842.842 0 0 1 .144.193.742.742 0 0 1 .107.386v.184a.748.748 0 0 1-.061.298.833.833 0 0 1-.112.2l-.078.09-4.16 4.161a.842.842 0 0 1-1.267-1.105l.075-.086 2.808-2.809-11.053.001a.75.75 0 0 1-.75-.75v-.184a.75.75 0 0 1 .75-.75l11.042-.001-2.797-2.797a.842.842 0 1 1 1.191-1.191z" fill="#FFF" fill-rule="nonzero"/>
</svg>
