<svg xmlns="http://www.w3.org/2000/svg" width="24" height="24" viewBox="0 0 24 24">
    <g fill="none" fill-rule="evenodd">
        <g fill="#FFF" fill-rule="nonzero" stroke="#FFF" stroke-width=".5">
            <g>
                <path d="M10.493 5c-.306 0-.553.248-.553.554 0 .306.247.554.553.554h.953v.664C8.396 7.052 6 9.624 6 12.745c0 3.308 2.69 6 6 6 3.307 0 5.998-2.692 5.998-6 0-1.493-.549-2.861-1.455-3.913l.865-1.144c.185-.245.136-.592-.108-.776-.243-.185-.591-.137-.775.108l-.785 1.039c-.891-.713-1.988-1.177-3.187-1.287v-.664h.954c.305 0 .553-.248.553-.554 0-.306-.247-.554-.553-.554h-3.014zM12 7.853c2.696 0 4.89 2.194 4.89 4.892 0 2.697-2.194 4.891-4.89 4.891-2.698 0-4.892-2.194-4.892-4.891 0-2.698 2.194-4.892 4.892-4.892zm0 1.654c-.307 0-.554.248-.554.554v3.684c0 .305.247.553.554.553.306 0 .553-.247.553-.553V10.06c0-.306-.247-.554-.553-.554z"/>
            </g>
        </g>
    </g>
</svg>
