<svg xmlns="http://www.w3.org/2000/svg" width="50" height="32" viewBox="0 0 50 32">
    <g fill="none" fill-rule="evenodd">
        <g>
            <g>
                <g>
                    <g>
                        <path fill="#12B295" d="M4.007 0C1.794 0 0 1.789 0 4.004v23.992C0 30.207 1.794 32 4.007 32h41.986C48.206 32 50 30.211 50 27.996V4.004C50 1.793 48.206 0 45.993 0H4.007z" transform="translate(-60 -644) translate(12 258) translate(0 370) translate(48 16)"/>
                        <g>
                            <path fill="#FEFEFE" d="M13.631 2.094l-.424.151-.74.235-1.018.313-.597.15-.572.113-.531.083-.472.056-.701.053-.265.01-.622.018-.686-.012-1.388-.08-1.098-.1-.447-.047-1.272-.171-.775-.1-.49-.06-.521-.023-.313-.026H.492l-.155.032-.112.058-.073.07-.045.074-.025.069-.01.064.005.149-.025.147L0 3.478l.01.145.037.14.058.138.076.13.19.242.22.214.217.174.194.134.188.114.206.092.124.083.057.058.017.024.04.046.047.037.125.05.147.027.152.007.267-.016.117-.017.909-.135.757-.096.713-.074 1.142-.096 1.02-.104.885-.107.741-.105 1.026-.168.356-.068.665-.181.597-.181.523-.181.462-.18.402-.174.345-.17.295-.162.245-.151.364-.269.219-.21.109-.137.029-.048.007-.063-.012-.05-.024-.032-.032-.02-.068-.018-.03-.001-.107.025-.068-.002-.049-.023-.12-.05-.087-.004-.072.029zM6.524 5.49l-.259.037-.238.063-.217.08-.196.09-.173.1-.274.19-.169.15-.06.06-.195.275-.157.275-.118.271-.084.27-.056.26-.028.25-.008.237.008.223.058.394.081.305.103.267.094.15.097.125.098.102.1.081.196.107.184.05.16.009.126-.015.114-.033.101-.048.084-.059.065-.067.05-.073.065-.158.022-.164-.005-.152-.019-.129-.03-.116-.034-.322.01-.27.042-.218.061-.172.07-.13.064-.089.066-.067.134-.077.127-.055.116-.029.111-.011.196.025.162.071.127.095.093.094.076.102.111.225.076.279.04.321.011.36-.013.381-.033.398-.12.81-.15.76-.148.634-.16.598-.043.17-.001.11.03.064.052.027.116-.012.061-.02.042.035.042.015.078-.02.058-.044.023-.024.29-.312.257-.325.229-.338.2-.342.175-.344.148-.341.234-.65.154-.574.095-.458.059-.415.03-.396-.01-.361-.042-.33-.067-.3-.094-.272-.112-.241-.122-.215-.132-.187-.136-.164-.134-.135-.24-.206-.174-.12-.066-.036-.345-.163-.326-.115-.31-.066L6.8 5.48l-.277.01z" transform="translate(-60 -644) translate(12 258) translate(0 370) translate(48 16) translate(33 16)"/>
                            <path fill="#EC1550" d="M6.999 0.008L6.906 0.027 6.866 0.027 6.638 0.044 6.443 0.087 6.273 0.147 6.126 0.227 6.002 0.32 5.899 0.422 5.812 0.53 5.745 0.644 5.653 0.864 5.603 1.057 5.583 1.246 5.603 1.445 5.651 1.62 5.714 1.773 5.788 1.899 5.92 2.072 5.981 2.13 6.14 2.243 6.297 2.322 6.447 2.382 6.595 2.416 6.866 2.425 7.107 2.383 7.305 2.308 7.456 2.227 7.587 2.13 7.707 1.986 7.802 1.846 7.873 1.713 7.925 1.585 7.971 1.354 7.966 1.155 7.927 0.995 7.873 0.874 7.807 0.772 7.725 0.698 7.681 0.624 7.668 0.546 7.698 0.375 7.71 0.259 7.672 0.154 7.587 0.079 7.475 0.034 7.346 0.01 7.107 0z" transform="translate(-60 -644) translate(12 258) translate(0 370) translate(48 16) translate(33 16)"/>
                        </g>
                        <path fill="#85CEC0" d="M14 22v2H3v-2h11zm5-4v2H3v-2h16zM50 7v6H0V7h50z" transform="translate(-60 -644) translate(12 258) translate(0 370) translate(48 16)"/>
                    </g>
                </g>
            </g>
        </g>
    </g>
</svg>
