<svg xmlns="http://www.w3.org/2000/svg" width="50" height="32" viewBox="0 0 50 32">
    <g fill="none" fill-rule="evenodd">
        <g>
            <g>
                <g>
                    <g>
                        <path fill="#2E81F8" d="M4.007 0C1.794 0 0 1.789 0 4.004v23.992C0 30.207 1.794 32 4.007 32h41.986C48.206 32 50 30.211 50 27.996V4.004C50 1.793 48.206 0 45.993 0H4.007z" transform="translate(-60 -496) translate(12 258) translate(0 222) translate(48 16)"/>
                        <path fill="#FFF" d="M3.663 20c.985 0 1.474.442 1.407 1.455h-.985c0-.362-.06-.731-.47-.731-.328 0-.522.18-.522.516 0 .918 2.037.838 2.037 2.36 0 1.253-.918 1.4-1.688 1.4-1.254 0-1.488-.737-1.435-1.575h1.012c0 .462.02.851.577.851.342 0 .51-.221.51-.55 0-.87-2.038-.924-2.038-2.365 0-.758.362-1.36 1.595-1.36zm13.303 0c.986 0 1.475.442 1.408 1.455h-.985c0-.362-.06-.731-.47-.731-.328 0-.522.18-.522.516 0 .918 2.037.838 2.037 2.36 0 1.253-.918 1.4-1.689 1.4-1.253 0-1.488-.737-1.434-1.575h1.012c0 .462.02.851.576.851.342 0 .51-.221.51-.55 0-.87-2.037-.924-2.037-2.365 0-.758.361-1.36 1.594-1.36zm3.15.08v3.365c0 .596.255.831.624.831.442 0 .643-.295.643-.83V20.08h1.012v3.432c0 .724-.409 1.488-1.642 1.488-1.112 0-1.649-.577-1.649-1.488V20.08h1.012zm9.176-.08c.992 0 1.608.556 1.548 1.568h-1.005c.006-.449-.068-.844-.603-.844-.63 0-.63.851-.63 1.79 0 1.514.147 1.782.723 1.782.168 0 .349-.04.503-.094V23.13h-.55v-.744h1.562v2.453c-.275.054-.965.16-1.368.16-1.643 0-1.88-.655-1.895-2.353v-.186c0-1.22.06-2.46 1.715-2.46zm5.469 0c1.032 0 1.447.57 1.407 1.609h-.992c0-.644-.114-.885-.415-.885-.539 0-.634.478-.643 1.576v.2c0 1.24.073 1.776.643 1.776.469 0 .449-.603.462-.985h.999c0 1.293-.516 1.709-1.461 1.709-1.61 0-1.667-1.147-1.67-2.365V22.5c0-1.28 0-2.5 1.67-2.5zm11.534.08c1.327 0 1.575.885 1.575 2.393l.001.173v.197c-.006.826-.134 2.076-1.616 2.076h-1.649V20.08zm-3.552 0c.69 0 1.133.443 1.133 1.267 0 .617-.242 1.08-.898 1.187v.013c.22.027.878.08.878.952 0 .308.02 1.22.113 1.42h-.991c-.135-.294-.108-.623-.108-.938 0-.576.054-1.065-.724-1.065h-.26v2.003h-1.013v-4.838zm-34.617 0l1.314 4.84H8.374l-.268-1.073h-1.38L6.45 24.92h-1l1.342-4.839h1.333zm31.011 0l1.313 4.84h-1.065l-.268-1.073h-1.38l-.275 1.072h-1l1.341-4.839h1.334zm-27.646 0l.757 3.291h.013l.805-3.29h1.575v4.838h-.985v-3.732h-.014l-.932 3.732h-.964l-.885-3.732h-.013v3.732h-.986V20.08h1.629zm13.07 0l1.286 3.351h.013v-3.35h.945v4.838h-1.334l-1.32-3.538h-.013v3.538h-.945V20.08h1.367zm21.58.744h-.523v3.351h.49c.616 0 .737-.462.737-1.675 0-.892 0-1.676-.704-1.676zm-38.738.188h-.014l-.462 2.091h.965l-.49-2.091zm31.01 0H38.4l-.463 2.091h.966l-.49-2.091zm3.921-.188h-.449v1.348h.45c.401 0 .515-.403.515-.71 0-.463-.195-.638-.516-.638z" transform="translate(-60 -496) translate(12 258) translate(0 222) translate(48 16)"/>
                        <path fill="#87B8FF" d="M0 7H50V13H0z" transform="translate(-60 -496) translate(12 258) translate(0 222) translate(48 16)"/>
                    </g>
                </g>
            </g>
        </g>
    </g>
</svg>
