<svg xmlns="http://www.w3.org/2000/svg" width="50" height="32" viewBox="0 0 50 32">
    <g fill="none" fill-rule="evenodd">
        <g>
            <g>
                <g>
                    <path fill="#F9BE00" d="M4.007 0C1.794 0 0 1.789 0 4.004v23.992C0 30.207 1.794 32 4.007 32h41.986C48.206 32 50 30.211 50 27.996V4.004C50 1.793 48.206 0 45.993 0H4.007z" transform="translate(-60 -274) translate(12 258) translate(48 16)"/>
                    <path fill="#FFDB67" d="M14 22v2H3v-2h11zm5-4v2H3v-2h16zM50 7v6H0V7h50z" transform="translate(-60 -274) translate(12 258) translate(48 16)"/>
                    <path fill="#FEFEFE" d="M45.58 22.158l-.147-.092c-.496-.497-1.19-.712-2.112-.657-.773.047-1.38.352-1.85.635v-.02c0-.242.028-.503.053-.756.03-.259.058-.524.058-.771 0-.253-.03-.495-.12-.698-.018-.053-.068-.086-.131-.086-.246.007-.733.175-.853.279l-.061.142c-.007.275-.065 1.044-.129 1.136.003-.002-.03.093-.03.093-.108 1.098-.108 2.066-.01 2.895.01.084.169.206.291.252.135.051.559-.063.804-.155l.092-.013c.076-.01.122-.074.12-.163l.002-.238c.178-.716.89-1.57 1.733-1.697.478-.077.856.046 1.153.37.04.058.126.573-.187 1.165-.233.438-.702.807-1.318 1.04-.58.22-1.224.309-2.015.281-.034-.021-.743-.501-.743-.501-.628-.44-1.407-.989-2.115-1.256-.123-.049-.347-.233-.48-.343l-.073-.062c-.407-.324-1.186-.843-1.809-1.257l-.331-.225v-.072c.015-.019.408-.254.408-.254.546-.32.8-.476.855-.559-.012.014.075-.043.075-.043.005-.001 1.357-.77 1.357-.77 1.304-.714 2.786-1.528 3.561-2.331l.036-.125.019-.109c.052-.171.052-.302.013-.455-.013-.043-.053-.094-.108-.103-.607-.061-1.386.302-2.1.97-.16.151-.295.225-.439.301l-.107.061c-.782.445-2.552 1.543-3.478 2.133.058-.995.245-2.409.472-3.59l-.028-.139-.095-.177-.073-.13-.018-.004c-.185-.095-.338-.055-.448-.029l-.184.07-.248.087c-.046.011-.08.041-.102.087-.442 1.068-.812 2.825-.895 4.23-.883-.561-1.702-.964-2.104-1.16l-.009-.007-.049-.01c-.141-.017-.319-.123-.488-.228-.018-.009-.337-.216-.337-.216l-.51-.33c.004.004-.136-.03-.136-.03-.222.038-.642.322-.77.517-.016.024-.025.053-.025.081 0 .043.015.083.024.121l.025.106.024.063c.245.253.865.673 1.472 1l.709.374 1.08.588c0 .006.183.147.183.147l.13.073s.011.01.02.015L31.12 22.92l-1.034.683c-.095.067-.505.25-.592.287-.226.088-.395.23-.466.381l-.027.06.027.04.08.06c-.003 0 .108.069.108.069l.113.078.108.017c.177.006.447-.097.953-.318.46-.205 1.714-.96 2.25-1.284l.228-.136c.098.007.202-.073.294-.142.107-.086.34-.23.481-.293.007-.001.09-.047.166-.089v.062c.022 1.638.117 2.832.295 3.75l.002.015.02.037c.085.13.186.52.278.862l.203.684c.006.009.058.064.058.064.117.078.472.216.708.188l.061-.006.037-.085c.019-.101.028-.201.028-.313 0-.125-.012-.262-.022-.433l-.015-.245c-.077-1.146-.15-2.798-.15-3.9v-.085l1.045.658c1.451.94 3.64 2.358 4.96 2.734.067.021.14.005.193-.044 0-.002.202-.131.202-.131l.037-.014c.08-.038.128-.166.137-.303 1.117-.056 2.668-.486 3.5-1.532.324-.406.469-.902.469-1.324 0-.349-.095-.651-.273-.815" transform="translate(-60 -274) translate(12 258) translate(48 16)"/>
                </g>
            </g>
        </g>
    </g>
</svg>
