<svg xmlns="http://www.w3.org/2000/svg" width="50" height="32" viewBox="0 0 50 32">
    <g fill="none" fill-rule="evenodd">
        <g>
            <g>
                <g>
                    <g>
                        <path fill="#004898" d="M4.007 0C1.794 0 0 1.789 0 4.004v23.992C0 30.207 1.794 32 4.007 32h41.986C48.206 32 50 30.211 50 27.996V4.004C50 1.793 48.206 0 45.993 0H4.007z" transform="translate(-60 -940) translate(12 258) translate(0 666) translate(48 16)"/>
                        <g>
                            <path fill="#FEFEFE" d="M3.22.16c-.358.178-.624.485-.75.866L.078 8.218c-.127.376-.098.785.082 1.142.178.355.485.623.862.75l7.85 2.635c.38.125.786.096 1.142-.083.359-.18.626-.486.75-.866l2.394-7.19c.262-.783-.165-1.632-.948-1.894L4.363.078c-.38-.127-.785-.099-1.144.082" transform="translate(-60 -940) translate(12 258) translate(0 666) translate(48 16) translate(33 16)"/>
                            <path fill="#00A4E2" d="M3.367 8.507h.54V4.772h-.54v3.735zm3.689-1.44c-.426.477-.958.86-1.574 1.098l-.354.139V4.97l.35.135c.616.236 1.15.619 1.578 1.093.304-.491.494-1.061.532-1.678.099-1.598-.903-3.064-2.277-3.574L4.177.569c-.512-.17-1.056.111-1.225.622l-2.4 7.196c-.17.513.116 1.067.629 1.236l5.446 1.818c.556-.59.916-1.372.968-2.246.05-.778-.155-1.512-.539-2.128z" transform="translate(-60 -940) translate(12 258) translate(0 666) translate(48 16) translate(33 16)"/>
                            <path fill="#004898" d="M10.712 8.495l-.675.001-1.39-1.866 1.412-1.87.68-.001-1.412 1.873 1.385 1.863zm1.325-5.301L7.039 1.523c.67.734 1.08 1.71 1.083 2.779.002.847-.263 1.654-.721 2.331.461.675.726 1.482.729 2.329 0 1.01-.363 1.938-.968 2.658l1.878.628c.513.17 1.056-.112 1.225-.624l2.4-7.196c.17-.51-.116-1.066-.628-1.234z" transform="translate(-60 -940) translate(12 258) translate(0 666) translate(48 16) translate(33 16)"/>
                            <path fill="#E7390E" d="M6.741 6.634c-.304-.358-.67-.657-1.096-.875v1.755c.425-.221.795-.523 1.096-.88" transform="translate(-60 -940) translate(12 258) translate(0 666) translate(48 16) translate(33 16)"/>
                        </g>
                        <path fill="#407EC2" d="M14 22v2H3v-2h11zm5-4v2H3v-2h16zM50 7v6H0V7h50z" transform="translate(-60 -940) translate(12 258) translate(0 666) translate(48 16)"/>
                    </g>
                </g>
            </g>
        </g>
    </g>
</svg>
