<svg xmlns="http://www.w3.org/2000/svg" width="50" height="32" viewBox="0 0 50 32">
    <g fill="none" fill-rule="evenodd">
        <g>
            <g>
                <g>
                    <g>
                        <path fill="#12A6D7" d="M4.007 0C1.794 0 0 1.789 0 4.004v23.992C0 30.207 1.794 32 4.007 32h41.986C48.206 32 50 30.211 50 27.996V4.004C50 1.793 48.206 0 45.993 0H4.007z" transform="translate(-60 -866) translate(12 258) translate(0 592) translate(48 16)"/>
                        <path fill="#FCB813" d="M44.703 16.362v2.374l-1.688.71.036.03c1.058.927 1.664 2.263 1.664 3.665 0 2.679-2.18 4.859-4.858 4.859C37.178 28 35 25.82 35 23.14c0-1.403.607-2.739 1.665-3.663l.037-.031-1.688-.71v-2.374l2.93 1.25.655 1.242.287.545.681 1.292c-1.244.15-2.178 1.193-2.178 2.45 0 1.36 1.107 2.47 2.468 2.47 1.36 0 2.467-1.11 2.467-2.47 0-1.257-.934-2.3-2.18-2.45l1.626-3.078 2.933-1.25zM42.223 16l-2.366 4.499L37.492 16l2.365 1.188L42.224 16z" transform="translate(-60 -866) translate(12 258) translate(0 592) translate(48 16)"/>
                        <path fill="#67CCEE" d="M14 22v2H3v-2h11zm5-4v2H3v-2h16zM50 7v6H0V7h50z" transform="translate(-60 -866) translate(12 258) translate(0 592) translate(48 16)"/>
                    </g>
                </g>
            </g>
        </g>
    </g>
</svg>
