<svg xmlns="http://www.w3.org/2000/svg" xmlns:xlink="http://www.w3.org/1999/xlink" width="50" height="32" viewBox="0 0 50 32">
    <defs>
        <path id="31tb4afr0a" d="M.04 5.839c0 3.197 2.59 5.787 5.79 5.787 3.194 0 5.786-2.59 5.786-5.787C11.616 2.64 9.024.05 5.829.05 2.63.05.04 2.64.04 5.839"/>
        <path id="chla3d07uc" d="M.04 5.839c0 3.197 2.59 5.787 5.79 5.787 3.194 0 5.786-2.59 5.786-5.787C11.616 2.64 9.024.05 5.829.05 2.63.05.04 2.64.04 5.839"/>
        <path id="y876tbwdve" d="M.04 5.839c0 3.197 2.59 5.787 5.79 5.787 3.194 0 5.786-2.59 5.786-5.787C11.616 2.64 9.024.05 5.829.05 2.63.05.04 2.64.04 5.839"/>
        <path id="xgifyt9ocg" d="M.04 5.839c0 3.197 2.59 5.787 5.79 5.787 3.194 0 5.786-2.59 5.786-5.787C11.616 2.64 9.024.05 5.829.05 2.63.05.04 2.64.04 5.839"/>
        <path id="abhgwe71ti" d="M.04 5.839c0 3.197 2.59 5.787 5.79 5.787 3.194 0 5.786-2.59 5.786-5.787C11.616 2.64 9.024.05 5.829.05 2.63.05.04 2.64.04 5.839"/>
        <path id="ht7q1wa4lk" d="M.04 5.839c0 3.197 2.59 5.787 5.79 5.787 3.194 0 5.786-2.59 5.786-5.787C11.616 2.64 9.024.05 5.829.05 2.63.05.04 2.64.04 5.839"/>
        <path id="jw3xn7jp8m" d="M.04 5.839c0 3.197 2.59 5.787 5.79 5.787 3.194 0 5.786-2.59 5.786-5.787C11.616 2.64 9.024.05 5.829.05 2.63.05.04 2.64.04 5.839"/>
        <path id="40xddyf4po" d="M.04 5.839c0 3.197 2.59 5.787 5.79 5.787 3.194 0 5.786-2.59 5.786-5.787C11.616 2.64 9.024.05 5.829.05 2.63.05.04 2.64.04 5.839"/>
        <path id="tlsxrymcsq" d="M.04 5.839c0 3.197 2.59 5.787 5.79 5.787 3.194 0 5.786-2.59 5.786-5.787C11.616 2.64 9.024.05 5.829.05 2.63.05.04 2.64.04 5.839"/>
        <path id="p3edtxfdbs" d="M.04 5.839c0 3.197 2.59 5.787 5.79 5.787 3.194 0 5.786-2.59 5.786-5.787C11.616 2.64 9.024.05 5.829.05 2.63.05.04 2.64.04 5.839"/>
        <path id="hzi4kdgjxu" d="M.04 5.839c0 3.197 2.59 5.787 5.79 5.787 3.194 0 5.786-2.59 5.786-5.787C11.616 2.64 9.024.05 5.829.05 2.63.05.04 2.64.04 5.839"/>
        <path id="xmlrwcqz1w" d="M.04 5.839c0 3.197 2.59 5.787 5.79 5.787 3.194 0 5.786-2.59 5.786-5.787C11.616 2.64 9.024.05 5.829.05 2.63.05.04 2.64.04 5.839"/>
        <path id="pj8afhxmoy" d="M.04 5.839c0 3.197 2.59 5.787 5.79 5.787 3.194 0 5.786-2.59 5.786-5.787C11.616 2.64 9.024.05 5.829.05 2.63.05.04 2.64.04 5.839"/>
        <path id="go1qt6v25A" d="M.04 5.839c0 3.197 2.59 5.787 5.79 5.787 3.194 0 5.786-2.59 5.786-5.787C11.616 2.64 9.024.05 5.829.05 2.63.05.04 2.64.04 5.839"/>
        <path id="bgscul621C" d="M.04 5.839c0 3.197 2.59 5.787 5.79 5.787 3.194 0 5.786-2.59 5.786-5.787C11.616 2.64 9.024.05 5.829.05 2.63.05.04 2.64.04 5.839"/>
        <path id="f35jn0xskE" d="M.04 5.839c0 3.197 2.59 5.787 5.79 5.787 3.194 0 5.786-2.59 5.786-5.787C11.616 2.64 9.024.05 5.829.05 2.63.05.04 2.64.04 5.839"/>
        <path id="g9sa8cd5zG" d="M.04 5.839c0 3.197 2.59 5.787 5.79 5.787 3.194 0 5.786-2.59 5.786-5.787C11.616 2.64 9.024.05 5.829.05 2.63.05.04 2.64.04 5.839"/>
        <path id="pmihgyog0I" d="M.04 5.839c0 3.197 2.59 5.787 5.79 5.787 3.194 0 5.786-2.59 5.786-5.787C11.616 2.64 9.024.05 5.829.05 2.63.05.04 2.64.04 5.839"/>
        <path id="tho0b4665K" d="M.04 5.839c0 3.197 2.59 5.787 5.79 5.787 3.194 0 5.786-2.59 5.786-5.787C11.616 2.64 9.024.05 5.829.05 2.63.05.04 2.64.04 5.839"/>
        <path id="p0mkr01ciM" d="M.04 5.839c0 3.197 2.59 5.787 5.79 5.787 3.194 0 5.786-2.59 5.786-5.787C11.616 2.64 9.024.05 5.829.05 2.63.05.04 2.64.04 5.839"/>
        <path id="k7elf9g06O" d="M.04 5.839c0 3.197 2.59 5.787 5.79 5.787 3.194 0 5.786-2.59 5.786-5.787C11.616 2.64 9.024.05 5.829.05 2.63.05.04 2.64.04 5.839"/>
        <path id="zkdamebquQ" d="M.04 5.839c0 3.197 2.59 5.787 5.79 5.787 3.194 0 5.786-2.59 5.786-5.787C11.616 2.64 9.024.05 5.829.05 2.63.05.04 2.64.04 5.839"/>
        <path id="b0qxmjt8lS" d="M.04 5.839c0 3.197 2.59 5.787 5.79 5.787 3.194 0 5.786-2.59 5.786-5.787C11.616 2.64 9.024.05 5.829.05 2.63.05.04 2.64.04 5.839"/>
        <path id="46svlvbsjU" d="M.04 5.839c0 3.197 2.59 5.787 5.79 5.787 3.194 0 5.786-2.59 5.786-5.787C11.616 2.64 9.024.05 5.829.05 2.63.05.04 2.64.04 5.839"/>
        <path id="h4zdq0ygvW" d="M.04 5.839c0 3.197 2.59 5.787 5.79 5.787 3.194 0 5.786-2.59 5.786-5.787C11.616 2.64 9.024.05 5.829.05 2.63.05.04 2.64.04 5.839"/>
        <path id="rsdhe2l54Y" d="M.04 5.839c0 3.197 2.59 5.787 5.79 5.787 3.194 0 5.786-2.59 5.786-5.787C11.616 2.64 9.024.05 5.829.05 2.63.05.04 2.64.04 5.839"/>
        <path id="amc61y4gzaa" d="M.04 5.839c0 3.197 2.59 5.787 5.79 5.787 3.194 0 5.786-2.59 5.786-5.787C11.616 2.64 9.024.05 5.829.05 2.63.05.04 2.64.04 5.839"/>
        <path id="ht967yibsac" d="M.04 5.839c0 3.197 2.59 5.787 5.79 5.787 3.194 0 5.786-2.59 5.786-5.787C11.616 2.64 9.024.05 5.829.05 2.63.05.04 2.64.04 5.839"/>
        <path id="43v31ixstae" d="M.04 5.839c0 3.197 2.59 5.787 5.79 5.787 3.194 0 5.786-2.59 5.786-5.787C11.616 2.64 9.024.05 5.829.05 2.63.05.04 2.64.04 5.839"/>
        <path id="tsrba30v6ag" d="M.04 5.839c0 3.197 2.59 5.787 5.79 5.787 3.194 0 5.786-2.59 5.786-5.787C11.616 2.64 9.024.05 5.829.05 2.63.05.04 2.64.04 5.839"/>
        <path id="x1nx0so4tai" d="M.04 5.839c0 3.197 2.59 5.787 5.79 5.787 3.194 0 5.786-2.59 5.786-5.787C11.616 2.64 9.024.05 5.829.05 2.63.05.04 2.64.04 5.839"/>
        <path id="xfmvf357uak" d="M.04 5.839c0 3.197 2.59 5.787 5.79 5.787 3.194 0 5.786-2.59 5.786-5.787C11.616 2.64 9.024.05 5.829.05 2.63.05.04 2.64.04 5.839"/>
        <path id="of781avexam" d="M.04 5.839c0 3.197 2.59 5.787 5.79 5.787 3.194 0 5.786-2.59 5.786-5.787C11.616 2.64 9.024.05 5.829.05 2.63.05.04 2.64.04 5.839"/>
        <path id="wfkcw0026ao" d="M.04 5.839c0 3.197 2.59 5.787 5.79 5.787 3.194 0 5.786-2.59 5.786-5.787C11.616 2.64 9.024.05 5.829.05 2.63.05.04 2.64.04 5.839"/>
        <path id="x6v8223n8aq" d="M.04 5.839c0 3.197 2.59 5.787 5.79 5.787 3.194 0 5.786-2.59 5.786-5.787C11.616 2.64 9.024.05 5.829.05 2.63.05.04 2.64.04 5.839"/>
        <path id="wk5u4ecrvas" d="M.04 5.839c0 3.197 2.59 5.787 5.79 5.787 3.194 0 5.786-2.59 5.786-5.787C11.616 2.64 9.024.05 5.829.05 2.63.05.04 2.64.04 5.839"/>
        <path id="1zop0kjloau" d="M.04 5.839c0 3.197 2.59 5.787 5.79 5.787 3.194 0 5.786-2.59 5.786-5.787C11.616 2.64 9.024.05 5.829.05 2.63.05.04 2.64.04 5.839"/>
        <path id="chyi6jvuraw" d="M.04 5.839c0 3.197 2.59 5.787 5.79 5.787 3.194 0 5.786-2.59 5.786-5.787C11.616 2.64 9.024.05 5.829.05 2.63.05.04 2.64.04 5.839"/>
        <path id="ixzmu8rzeay" d="M.04 5.839c0 3.197 2.59 5.787 5.79 5.787 3.194 0 5.786-2.59 5.786-5.787C11.616 2.64 9.024.05 5.829.05 2.63.05.04 2.64.04 5.839"/>
        <path id="vm1knsj7naA" d="M.04 5.839c0 3.197 2.59 5.787 5.79 5.787 3.194 0 5.786-2.59 5.786-5.787C11.616 2.64 9.024.05 5.829.05 2.63.05.04 2.64.04 5.839"/>
        <path id="kl9hrbfe9aC" d="M.04 5.839c0 3.197 2.59 5.787 5.79 5.787 3.194 0 5.786-2.59 5.786-5.787C11.616 2.64 9.024.05 5.829.05 2.63.05.04 2.64.04 5.839"/>
        <path id="ni0ngx5f3aE" d="M.04 5.839c0 3.197 2.59 5.787 5.79 5.787 3.194 0 5.786-2.59 5.786-5.787C11.616 2.64 9.024.05 5.829.05 2.63.05.04 2.64.04 5.839"/>
        <path id="eyxiu3oa3aG" d="M.04 5.839c0 3.197 2.59 5.787 5.79 5.787 3.194 0 5.786-2.59 5.786-5.787C11.616 2.64 9.024.05 5.829.05 2.63.05.04 2.64.04 5.839"/>
        <path id="ryksyga8oaI" d="M.04 5.839c0 3.197 2.59 5.787 5.79 5.787 3.194 0 5.786-2.59 5.786-5.787C11.616 2.64 9.024.05 5.829.05 2.63.05.04 2.64.04 5.839"/>
        <path id="zx3kmn8ifaK" d="M.04 5.839c0 3.197 2.59 5.787 5.79 5.787 3.194 0 5.786-2.59 5.786-5.787C11.616 2.64 9.024.05 5.829.05 2.63.05.04 2.64.04 5.839"/>
        <path id="5f1d6xym0aM" d="M.04 5.839c0 3.197 2.59 5.787 5.79 5.787 3.194 0 5.786-2.59 5.786-5.787C11.616 2.64 9.024.05 5.829.05 2.63.05.04 2.64.04 5.839"/>
        <path id="5drztztovaO" d="M.04 5.839c0 3.197 2.59 5.787 5.79 5.787 3.194 0 5.786-2.59 5.786-5.787C11.616 2.64 9.024.05 5.829.05 2.63.05.04 2.64.04 5.839"/>
        <path id="yoxlg4ntxaQ" d="M.04 5.839c0 3.197 2.59 5.787 5.79 5.787 3.194 0 5.786-2.59 5.786-5.787C11.616 2.64 9.024.05 5.829.05 2.63.05.04 2.64.04 5.839"/>
        <path id="e354siftmaS" d="M.04 5.839c0 3.197 2.59 5.787 5.79 5.787 3.194 0 5.786-2.59 5.786-5.787C11.616 2.64 9.024.05 5.829.05 2.63.05.04 2.64.04 5.839"/>
        <path id="8mmdyvpqsaU" d="M.04 5.839c0 3.197 2.59 5.787 5.79 5.787 3.194 0 5.786-2.59 5.786-5.787C11.616 2.64 9.024.05 5.829.05 2.63.05.04 2.64.04 5.839"/>
        <path id="k3q03fygoaW" d="M.04 5.839c0 3.197 2.59 5.787 5.79 5.787 3.194 0 5.786-2.59 5.786-5.787C11.616 2.64 9.024.05 5.829.05 2.63.05.04 2.64.04 5.839"/>
        <path id="w86nci9qzaY" d="M.04 5.839c0 3.197 2.59 5.787 5.79 5.787 3.194 0 5.786-2.59 5.786-5.787C11.616 2.64 9.024.05 5.829.05 2.63.05.04 2.64.04 5.839"/>
        <path id="utlp44hg1ba" d="M.04 5.839c0 3.197 2.59 5.787 5.79 5.787 3.194 0 5.786-2.59 5.786-5.787C11.616 2.64 9.024.05 5.829.05 2.63.05.04 2.64.04 5.839"/>
        <path id="67jwd5ja5bc" d="M.04 5.839c0 3.197 2.59 5.787 5.79 5.787 3.194 0 5.786-2.59 5.786-5.787C11.616 2.64 9.024.05 5.829.05 2.63.05.04 2.64.04 5.839"/>
        <path id="v6q5805qmbe" d="M.04 5.839c0 3.197 2.59 5.787 5.79 5.787 3.194 0 5.786-2.59 5.786-5.787C11.616 2.64 9.024.05 5.829.05 2.63.05.04 2.64.04 5.839"/>
        <path id="4ckmhnksabg" d="M.04 5.839c0 3.197 2.59 5.787 5.79 5.787 3.194 0 5.786-2.59 5.786-5.787C11.616 2.64 9.024.05 5.829.05 2.63.05.04 2.64.04 5.839"/>
        <path id="sfc6dp0swbi" d="M.04 5.839c0 3.197 2.59 5.787 5.79 5.787 3.194 0 5.786-2.59 5.786-5.787C11.616 2.64 9.024.05 5.829.05 2.63.05.04 2.64.04 5.839"/>
        <path id="79vy5vmk7bk" d="M.04 5.839c0 3.197 2.59 5.787 5.79 5.787 3.194 0 5.786-2.59 5.786-5.787C11.616 2.64 9.024.05 5.829.05 2.63.05.04 2.64.04 5.839"/>
        <path id="dxonjle36bm" d="M.04 5.839c0 3.197 2.59 5.787 5.79 5.787 3.194 0 5.786-2.59 5.786-5.787C11.616 2.64 9.024.05 5.829.05 2.63.05.04 2.64.04 5.839"/>
        <path id="t5yae81xlbo" d="M.04 5.839c0 3.197 2.59 5.787 5.79 5.787 3.194 0 5.786-2.59 5.786-5.787C11.616 2.64 9.024.05 5.829.05 2.63.05.04 2.64.04 5.839"/>
        <path id="6uoqqix2ubq" d="M.04 5.839c0 3.197 2.59 5.787 5.79 5.787 3.194 0 5.786-2.59 5.786-5.787C11.616 2.64 9.024.05 5.829.05 2.63.05.04 2.64.04 5.839"/>
        <path id="v3yy8xwx9bs" d="M.04 5.839c0 3.197 2.59 5.787 5.79 5.787 3.194 0 5.786-2.59 5.786-5.787C11.616 2.64 9.024.05 5.829.05 2.63.05.04 2.64.04 5.839"/>
        <path id="jmat38lhqbu" d="M.04 5.839c0 3.197 2.59 5.787 5.79 5.787 3.194 0 5.786-2.59 5.786-5.787C11.616 2.64 9.024.05 5.829.05 2.63.05.04 2.64.04 5.839"/>
    </defs>
    <g fill="none" fill-rule="evenodd">
        <g>
            <g>
                <g>
                    <g>
                        <path fill="#2B64CE" d="M4.007 0C1.794 0 0 1.789 0 4.004v23.992C0 30.207 1.794 32 4.007 32h41.986C48.206 32 50 30.211 50 27.996V4.004C50 1.793 48.206 0 45.993 0H4.007z" transform="translate(-60 -718) translate(12 258) translate(0 444) translate(48 16)"/>
                        <g>
                            <g>
                                <path fill="#FEFEFE" d="M12.155 6.078c0 3.357-2.723 6.078-6.074 6.078C2.72 12.156 0 9.435 0 6.078 0 2.724 2.721 0 6.08 0c3.352 0 6.075 2.724 6.075 6.078" transform="translate(-60 -718) translate(12 258) translate(0 444) translate(48 16) translate(34 16)"/>
                                <path fill="#0083C9" d="M6.084 11.87c3.194 0 5.786-2.592 5.786-5.791 0-3.198-2.592-5.79-5.787-5.79C2.884.289.294 2.88.294 6.079c0 3.2 2.59 5.79 5.79 5.79" transform="translate(-60 -718) translate(12 258) translate(0 444) translate(48 16) translate(34 16)"/>
                            </g>
                            <g>
                                <g transform="translate(-60 -718) translate(12 258) translate(0 444) translate(48 16) translate(34 16) translate(.254 .243)">
                                    <mask id="v5h3se8bvb" fill="#fff">
                                        <use xlink:href="#31tb4afr0a"/>
                                    </mask>
                                    <path fill="#0083C9" d="M5.88 8.63c2.548 0 4.726.71 5.664 1.717.309-.716.481-1.513.481-2.342 0-3.323-2.752-6.012-6.144-6.012-3.388 0-6.142 2.69-6.142 6.015 0 .829.174 1.622.483 2.339C1.157 9.34 3.338 8.63 5.881 8.63" mask="url(#v5h3se8bvb)"/>
                                </g>
                                <g transform="translate(-60 -718) translate(12 258) translate(0 444) translate(48 16) translate(34 16) translate(.254 .243)">
                                    <mask id="yjon0m2nrd" fill="#fff">
                                        <use xlink:href="#chla3d07uc"/>
                                    </mask>
                                    <path fill="#0084CB" d="M5.88 8.636c2.54 0 4.713.705 5.648 1.703.309-.71.48-1.5.48-2.322 0-3.297-2.744-5.973-6.128-5.973-3.379 0-6.126 2.677-6.126 5.975 0 .822.173 1.61.482 2.32.933-.998 3.108-1.703 5.644-1.703" mask="url(#yjon0m2nrd)"/>
                                </g>
                                <g transform="translate(-60 -718) translate(12 258) translate(0 444) translate(48 16) translate(34 16) translate(.254 .243)">
                                    <mask id="dwe4bd5zvf" fill="#fff">
                                        <use xlink:href="#y876tbwdve"/>
                                    </mask>
                                    <path fill="#0086CC" d="M5.88 8.643c2.533 0 4.7.7 5.633 1.69.308-.705.48-1.49.48-2.305 0-3.27-2.739-5.932-6.114-5.932-3.37 0-6.11 2.663-6.11 5.934 0 .816.173 1.597.48 2.302.931-.99 3.1-1.69 5.63-1.69" mask="url(#dwe4bd5zvf)"/>
                                </g>
                                <g transform="translate(-60 -718) translate(12 258) translate(0 444) translate(48 16) translate(34 16) translate(.254 .243)">
                                    <mask id="u7ace098dh" fill="#fff">
                                        <use xlink:href="#xgifyt9ocg"/>
                                    </mask>
                                    <path fill="#0088CD" d="M5.878 8.65c2.528 0 4.69.693 5.62 1.675.307-.699.478-1.476.478-2.286 0-3.243-2.731-5.892-6.098-5.892-3.36 0-6.094 2.65-6.094 5.894 0 .81.172 1.584.48 2.284.927-.982 3.092-1.676 5.614-1.676" mask="url(#u7ace098dh)"/>
                                </g>
                                <g transform="translate(-60 -718) translate(12 258) translate(0 444) translate(48 16) translate(34 16) translate(.254 .243)">
                                    <mask id="0h3h42enij" fill="#fff">
                                        <use xlink:href="#abhgwe71ti"/>
                                    </mask>
                                    <path fill="#0089CE" d="M5.878 8.656c2.52 0 4.677.687 5.604 1.661.307-.693.478-1.464.478-2.266 0-3.217-2.725-5.853-6.082-5.853-3.353 0-6.08 2.637-6.08 5.855 0 .802.173 1.57.48 2.264.925-.974 3.084-1.661 5.6-1.661" mask="url(#0h3h42enij)"/>
                                </g>
                                <g transform="translate(-60 -718) translate(12 258) translate(0 444) translate(48 16) translate(34 16) translate(.254 .243)">
                                    <mask id="lyxdq4ds3l" fill="#fff">
                                        <use xlink:href="#ht7q1wa4lk"/>
                                    </mask>
                                    <path fill="#008BCF" d="M5.877 8.662c2.514 0 4.665.682 5.59 1.648.306-.687.476-1.452.476-2.248 0-3.19-2.717-5.812-6.066-5.812-3.344 0-6.063 2.623-6.063 5.814 0 .796.171 1.558.477 2.246.923-.966 3.076-1.648 5.586-1.648" mask="url(#lyxdq4ds3l)"/>
                                </g>
                                <g transform="translate(-60 -718) translate(12 258) translate(0 444) translate(48 16) translate(34 16) translate(.254 .243)">
                                    <mask id="5vojv63ran" fill="#fff">
                                        <use xlink:href="#jw3xn7jp8m"/>
                                    </mask>
                                    <path fill="#008DD1" d="M5.876 8.669c2.508 0 4.653.676 5.575 1.633.306-.68.476-1.439.476-2.229 0-3.163-2.71-5.772-6.051-5.772-3.335 0-6.048 2.61-6.048 5.774 0 .79.172 1.546.477 2.227.92-.957 3.068-1.633 5.571-1.633" mask="url(#5vojv63ran)"/>
                                </g>
                                <g transform="translate(-60 -718) translate(12 258) translate(0 444) translate(48 16) translate(34 16) translate(.254 .243)">
                                    <mask id="i0uvzuns3p" fill="#fff">
                                        <use xlink:href="#40xddyf4po"/>
                                    </mask>
                                    <path fill="#008FD2" d="M5.875 8.675c2.502 0 4.641.67 5.561 1.62.305-.675.474-1.427.474-2.21 0-3.136-2.703-5.733-6.035-5.733-3.326 0-6.032 2.597-6.032 5.734 0 .784.171 1.533.476 2.21.918-.95 3.06-1.621 5.556-1.621" mask="url(#i0uvzuns3p)"/>
                                </g>
                                <g transform="translate(-60 -718) translate(12 258) translate(0 444) translate(48 16) translate(34 16) translate(.254 .243)">
                                    <mask id="wpd2bw27gr" fill="#fff">
                                        <use xlink:href="#tlsxrymcsq"/>
                                    </mask>
                                    <path fill="#0091D3" d="M5.874 8.681c2.495 0 4.63.665 5.547 1.607.304-.67.473-1.415.473-2.192 0-3.11-2.696-5.692-6.02-5.692-3.317 0-6.016 2.584-6.016 5.694 0 .776.17 1.52.474 2.19.916-.942 3.053-1.607 5.542-1.607" mask="url(#wpd2bw27gr)"/>
                                </g>
                                <g transform="translate(-60 -718) translate(12 258) translate(0 444) translate(48 16) translate(34 16) translate(.254 .243)">
                                    <mask id="pzdrg974at" fill="#fff">
                                        <use xlink:href="#p3edtxfdbs"/>
                                    </mask>
                                    <path fill="#0093D4" d="M5.874 8.688c2.488 0 4.617.659 5.531 1.592.304-.664.472-1.403.472-2.173 0-3.082-2.689-5.652-6.003-5.652-3.31 0-6 2.57-6 5.654 0 .77.169 1.507.472 2.171.914-.933 3.045-1.592 5.528-1.592" mask="url(#pzdrg974at)"/>
                                </g>
                                <g transform="translate(-60 -718) translate(12 258) translate(0 444) translate(48 16) translate(34 16) translate(.254 .243)">
                                    <mask id="1w9tr5zqrv" fill="#fff">
                                        <use xlink:href="#hzi4kdgjxu"/>
                                    </mask>
                                    <path fill="#0094D6" d="M5.873 8.694c2.482 0 4.605.653 5.517 1.579.303-.658.47-1.39.47-2.154 0-3.056-2.681-5.612-5.987-5.612-3.3 0-5.985 2.557-5.985 5.613 0 .764.17 1.494.472 2.153.911-.926 3.036-1.579 5.513-1.579" mask="url(#1w9tr5zqrv)"/>
                                </g>
                                <g transform="translate(-60 -718) translate(12 258) translate(0 444) translate(48 16) translate(34 16) translate(.254 .243)">
                                    <mask id="jbqxvn1f3x" fill="#fff">
                                        <use xlink:href="#xmlrwcqz1w"/>
                                    </mask>
                                    <path fill="#0096D7" d="M5.872 8.7c2.475 0 4.593.648 5.502 1.565.303-.652.47-1.378.47-2.135 0-3.029-2.674-5.572-5.972-5.572-3.291 0-5.97 2.544-5.97 5.573 0 .757.17 1.482.472 2.134.908-.917 3.028-1.564 5.498-1.564" mask="url(#jbqxvn1f3x)"/>
                                </g>
                                <g transform="translate(-60 -718) translate(12 258) translate(0 444) translate(48 16) translate(34 16) translate(.254 .243)">
                                    <mask id="94aoksn3vz" fill="#fff">
                                        <use xlink:href="#pj8afhxmoy"/>
                                    </mask>
                                    <path fill="#0098D8" d="M5.871 8.707c2.469 0 4.581.642 5.488 1.551.302-.646.469-1.366.469-2.116 0-3.003-2.668-5.533-5.957-5.533-3.282 0-5.953 2.53-5.953 5.534 0 .75.168 1.468.47 2.115.906-.91 3.02-1.55 5.483-1.55" mask="url(#94aoksn3vz)"/>
                                </g>
                                <g transform="translate(-60 -718) translate(12 258) translate(0 444) translate(48 16) translate(34 16) translate(.254 .243)">
                                    <mask id="g9vmg6vdoB" fill="#fff">
                                        <use xlink:href="#go1qt6v25A"/>
                                    </mask>
                                    <path fill="#009AD9" d="M5.87 8.714c2.462 0 4.57.635 5.474 1.537.301-.641.468-1.354.468-2.098 0-2.976-2.661-5.492-5.941-5.492-3.274 0-5.938 2.517-5.938 5.493 0 .744.168 1.456.468 2.097.904-.902 3.013-1.537 5.47-1.537" mask="url(#g9vmg6vdoB)"/>
                                </g>
                                <g transform="translate(-60 -718) translate(12 258) translate(0 444) translate(48 16) translate(34 16) translate(.254 .243)">
                                    <mask id="907web5r9D" fill="#fff">
                                        <use xlink:href="#bgscul621C"/>
                                    </mask>
                                    <path fill="#009CDB" d="M5.87 8.72c2.455 0 4.556.63 5.458 1.523.301-.635.467-1.342.467-2.079 0-2.949-2.654-5.452-5.925-5.452-3.265 0-5.922 2.504-5.922 5.453 0 .738.167 1.443.467 2.078C1.317 9.35 3.42 8.72 5.87 8.72" mask="url(#907web5r9D)"/>
                                </g>
                                <g transform="translate(-60 -718) translate(12 258) translate(0 444) translate(48 16) translate(34 16) translate(.254 .243)">
                                    <mask id="rn4akxkevF" fill="#fff">
                                        <use xlink:href="#f35jn0xskE"/>
                                    </mask>
                                    <path fill="#009EDC" d="M5.869 8.727c2.449 0 4.545.624 5.444 1.509.3-.63.466-1.33.466-2.06 0-2.922-2.647-5.413-5.91-5.413-3.256 0-5.907 2.491-5.907 5.413 0 .731.168 1.43.467 2.06.899-.885 2.996-1.51 5.44-1.51" mask="url(#rn4akxkevF)"/>
                                </g>
                                <g transform="translate(-60 -718) translate(12 258) translate(0 444) translate(48 16) translate(34 16) translate(.254 .243)">
                                    <mask id="sri0behtwH" fill="#fff">
                                        <use xlink:href="#g9sa8cd5zG"/>
                                    </mask>
                                    <path fill="#00A0DD" d="M5.868 8.733c2.442 0 4.533.618 5.43 1.495.3-.623.464-1.317.464-2.041 0-2.895-2.64-5.372-5.894-5.372-3.248 0-5.89 2.477-5.89 5.373 0 .724.166 1.417.465 2.04.896-.877 2.988-1.495 5.425-1.495" mask="url(#sri0behtwH)"/>
                                </g>
                                <g transform="translate(-60 -718) translate(12 258) translate(0 444) translate(48 16) translate(34 16) translate(.254 .243)">
                                    <mask id="bxipoe3xtJ" fill="#fff">
                                        <use xlink:href="#pmihgyog0I"/>
                                    </mask>
                                    <path fill="#00A2DE" d="M5.867 8.74c2.436 0 4.52.612 5.415 1.481.3-.617.464-1.305.464-2.023 0-2.868-2.633-5.332-5.879-5.332-3.239 0-5.875 2.464-5.875 5.333 0 .718.166 1.405.465 2.022.894-.87 2.98-1.481 5.41-1.481" mask="url(#bxipoe3xtJ)"/>
                                </g>
                                <g transform="translate(-60 -718) translate(12 258) translate(0 444) translate(48 16) translate(34 16) translate(.254 .243)">
                                    <mask id="0j134eb3wL" fill="#fff">
                                        <use xlink:href="#tho0b4665K"/>
                                    </mask>
                                    <path fill="#00A4E0" d="M5.867 8.746c2.429 0 4.508.606 5.4 1.468.298-.612.462-1.293.462-2.004 0-2.842-2.625-5.293-5.862-5.293-3.23 0-5.86 2.451-5.86 5.293 0 .712.166 1.392.463 2.004.892-.862 2.973-1.468 5.397-1.468" mask="url(#0j134eb3wL)"/>
                                </g>
                                <g transform="translate(-60 -718) translate(12 258) translate(0 444) translate(48 16) translate(34 16) translate(.254 .243)">
                                    <mask id="yxo310z4kN" fill="#fff">
                                        <use xlink:href="#p0mkr01ciM"/>
                                    </mask>
                                    <path fill="#00A6E1" d="M5.866 8.753c2.422 0 4.496.6 5.385 1.453.298-.606.462-1.28.462-1.985 0-2.815-2.619-5.252-5.847-5.252C2.644 2.969.022 5.407.022 8.22c0 .705.165 1.38.462 1.985.89-.853 2.965-1.453 5.382-1.453" mask="url(#yxo310z4kN)"/>
                                </g>
                                <g transform="translate(-60 -718) translate(12 258) translate(0 444) translate(48 16) translate(34 16) translate(.254 .243)">
                                    <mask id="60rqxkt2pP" fill="#fff">
                                        <use xlink:href="#k7elf9g06O"/>
                                    </mask>
                                    <path fill="#00A8E2" d="M5.865 8.76c2.416 0 4.484.594 5.37 1.439.298-.6.461-1.269.461-1.967 0-2.788-2.611-5.212-5.831-5.212C2.652 3.02.037 5.445.037 8.232c0 .699.165 1.367.46 1.967.888-.845 2.957-1.44 5.368-1.44" mask="url(#60rqxkt2pP)"/>
                                </g>
                                <g transform="translate(-60 -718) translate(12 258) translate(0 444) translate(48 16) translate(34 16) translate(.254 .243)">
                                    <mask id="rihf19n9gR" fill="#fff">
                                        <use xlink:href="#zkdamebquQ"/>
                                    </mask>
                                    <path fill="#00AAE4" d="M5.864 8.766c2.41 0 4.473.588 5.357 1.425.296-.594.459-1.256.459-1.947 0-2.762-2.604-5.173-5.816-5.173C2.66 3.071.052 5.483.052 8.244c0 .692.164 1.353.46 1.947.884-.837 2.948-1.425 5.352-1.425" mask="url(#rihf19n9gR)"/>
                                </g>
                                <g transform="translate(-60 -718) translate(12 258) translate(0 444) translate(48 16) translate(34 16) translate(.254 .243)">
                                    <mask id="p8hb78of6T" fill="#fff">
                                        <use xlink:href="#b0qxmjt8lS"/>
                                    </mask>
                                    <path fill="#00ADE5" d="M5.863 8.772c2.403 0 4.46.583 5.342 1.412.296-.588.459-1.244.459-1.929 0-2.735-2.598-5.132-5.8-5.132C2.667 3.123.066 5.52.066 8.255c0 .685.164 1.341.458 1.929.883-.829 2.941-1.412 5.338-1.412" mask="url(#p8hb78of6T)"/>
                                </g>
                                <g transform="translate(-60 -718) translate(12 258) translate(0 444) translate(48 16) translate(34 16) translate(.254 .243)">
                                    <mask id="61jvpehe4V" fill="#fff">
                                        <use xlink:href="#46svlvbsjU"/>
                                    </mask>
                                    <path fill="#00AFE6" d="M5.863 8.779c2.396 0 4.448.577 5.327 1.397.295-.582.457-1.232.457-1.91 0-2.707-2.59-5.092-5.784-5.092C2.676 3.174.08 5.56.08 8.266c0 .68.164 1.328.458 1.91.88-.82 2.933-1.397 5.324-1.397" mask="url(#61jvpehe4V)"/>
                                </g>
                                <g transform="translate(-60 -718) translate(12 258) translate(0 444) translate(48 16) translate(34 16) translate(.254 .243)">
                                    <mask id="6ocfm7f5nX" fill="#fff">
                                        <use xlink:href="#h4zdq0ygvW"/>
                                    </mask>
                                    <path fill="#00B1E8" d="M5.862 8.785c2.39 0 4.436.571 5.312 1.384.295-.577.457-1.22.457-1.891 0-2.681-2.584-5.052-5.77-5.052-3.177 0-5.765 2.37-5.765 5.051 0 .673.164 1.316.457 1.892.877-.813 2.925-1.384 5.309-1.384" mask="url(#6ocfm7f5nX)"/>
                                </g>
                                <g transform="translate(-60 -718) translate(12 258) translate(0 444) translate(48 16) translate(34 16) translate(.254 .243)">
                                    <mask id="enpio3ck9Z" fill="#fff">
                                        <use xlink:href="#rsdhe2l54Y"/>
                                    </mask>
                                    <path fill="#00B3E9" d="M5.861 8.792c2.383 0 4.424.565 5.298 1.37.294-.571.455-1.208.455-1.873 0-2.654-2.576-5.012-5.753-5.012-3.17 0-5.75 2.358-5.75 5.012 0 .666.163 1.302.456 1.873.875-.805 2.917-1.37 5.294-1.37" mask="url(#enpio3ck9Z)"/>
                                </g>
                                <g transform="translate(-60 -718) translate(12 258) translate(0 444) translate(48 16) translate(34 16) translate(.254 .243)">
                                    <mask id="blm8xl4ztab" fill="#fff">
                                        <use xlink:href="#amc61y4gzaa"/>
                                    </mask>
                                    <path fill="#00B5EA" d="M5.86 8.798c2.377 0 4.412.56 5.284 1.356.293-.565.454-1.195.454-1.853 0-2.628-2.57-4.973-5.738-4.973C2.7 3.328.126 5.673.126 8.3c0 .66.162 1.29.455 1.854.872-.796 2.908-1.356 5.28-1.356" mask="url(#blm8xl4ztab)"/>
                                </g>
                                <g transform="translate(-60 -718) translate(12 258) translate(0 444) translate(48 16) translate(34 16) translate(.254 .243)">
                                    <mask id="w4n3ni14jad" fill="#fff">
                                        <use xlink:href="#ht967yibsac"/>
                                    </mask>
                                    <path fill="#00B8EC" d="M5.86 8.805c2.37 0 4.4.553 5.268 1.342.293-.56.453-1.183.453-1.835 0-2.6-2.562-4.932-5.722-4.932C2.708 3.38.141 5.71.141 8.31c0 .653.162 1.277.453 1.836.87-.789 2.901-1.342 5.265-1.342" mask="url(#w4n3ni14jad)"/>
                                </g>
                                <g transform="translate(-60 -718) translate(12 258) translate(0 444) translate(48 16) translate(34 16) translate(.254 .243)">
                                    <mask id="76j5ntsg6af" fill="#fff">
                                        <use xlink:href="#43v31ixstae"/>
                                    </mask>
                                    <path fill="#03BAED" d="M5.859 8.811c2.363 0 4.388.548 5.254 1.328.292-.553.452-1.17.452-1.816 0-2.574-2.555-4.892-5.706-4.892-3.143 0-5.703 2.318-5.703 4.891 0 .647.161 1.265.452 1.817.868-.78 2.893-1.328 5.25-1.328" mask="url(#76j5ntsg6af)"/>
                                </g>
                                <g transform="translate(-60 -718) translate(12 258) translate(0 444) translate(48 16) translate(34 16) translate(.254 .243)">
                                    <mask id="hsfzogc2yah" fill="#fff">
                                        <use xlink:href="#tsrba30v6ag"/>
                                    </mask>
                                    <path fill="#12BCEF" d="M5.858 8.818c2.357 0 4.376.542 5.24 1.314.291-.548.45-1.159.45-1.797 0-2.548-2.548-4.853-5.69-4.853C2.724 3.482.17 5.787.17 8.334c0 .64.16 1.251.451 1.798.865-.772 2.885-1.314 5.236-1.314" mask="url(#hsfzogc2yah)"/>
                                </g>
                                <g transform="translate(-60 -718) translate(12 258) translate(0 444) translate(48 16) translate(34 16) translate(.254 .243)">
                                    <mask id="4mndqjmmdaj" fill="#fff">
                                        <use xlink:href="#x1nx0so4tai"/>
                                    </mask>
                                    <path fill="#1BBFF0" d="M5.857 8.824c2.35 0 4.364.536 5.225 1.3.291-.541.45-1.146.45-1.778 0-2.52-2.541-4.812-5.675-4.812-3.125 0-5.671 2.292-5.671 4.81 0 .634.16 1.24.45 1.78.862-.764 2.877-1.3 5.221-1.3" mask="url(#4mndqjmmdaj)"/>
                                </g>
                                <g transform="translate(-60 -718) translate(12 258) translate(0 444) translate(48 16) translate(34 16) translate(.254 .243)">
                                    <mask id="63mo7vumjal" fill="#fff">
                                        <use xlink:href="#xfmvf357uak"/>
                                    </mask>
                                    <path fill="#20C3F3" d="M5.856 8.83c2.344 0 4.352.53 5.21 1.287.292-.536.45-1.134.45-1.76 0-2.493-2.534-4.772-5.66-4.772C2.74 3.585.201 5.864.201 8.356c0 .627.16 1.226.449 1.761.86-.756 2.868-1.286 5.206-1.286" mask="url(#63mo7vumjal)"/>
                                </g>
                                <g transform="translate(-60 -718) translate(12 258) translate(0 444) translate(48 16) translate(34 16) translate(.254 .243)">
                                    <mask id="f3h1zvn41an" fill="#fff">
                                        <use xlink:href="#of781avexam"/>
                                    </mask>
                                    <path fill="#32C5F3" d="M5.856 8.845c2.341 0 4.346.527 5.204 1.279.29-.533.448-1.127.448-1.749 0-2.477-2.53-4.743-5.652-4.743-3.112 0-5.648 2.266-5.648 4.742 0 .623.16 1.218.449 1.75.859-.752 2.865-1.279 5.2-1.279" mask="url(#f3h1zvn41an)"/>
                                </g>
                                <g transform="translate(-60 -718) translate(12 258) translate(0 444) translate(48 16) translate(34 16) translate(.254 .243)">
                                    <mask id="ehqff0lz0ap" fill="#fff">
                                        <use xlink:href="#wfkcw0026ao"/>
                                    </mask>
                                    <path fill="#3FC6F3" d="M5.856 8.86c2.338 0 4.34.524 5.197 1.27.29-.53.447-1.12.447-1.737 0-2.461-2.527-4.714-5.644-4.714-3.108 0-5.64 2.253-5.64 4.713 0 .619.16 1.21.448 1.738.857-.746 2.86-1.27 5.192-1.27" mask="url(#ehqff0lz0ap)"/>
                                </g>
                                <g transform="translate(-60 -718) translate(12 258) translate(0 444) translate(48 16) translate(34 16) translate(.254 .243)">
                                    <mask id="q11v5k2cjar" fill="#fff">
                                        <use xlink:href="#x6v8223n8aq"/>
                                    </mask>
                                    <path fill="#4AC8F4" d="M5.856 8.875c2.335 0 4.335.52 5.19 1.261.289-.526.447-1.112.447-1.725 0-2.445-2.524-4.684-5.637-4.684C2.752 3.727.224 5.966.224 8.41c0 .614.159 1.201.447 1.727.856-.742 2.857-1.262 5.185-1.262" mask="url(#q11v5k2cjar)"/>
                                </g>
                                <g transform="translate(-60 -718) translate(12 258) translate(0 444) translate(48 16) translate(34 16) translate(.254 .243)">
                                    <mask id="t5mwea8g4at" fill="#fff">
                                        <use xlink:href="#wk5u4ecrvas"/>
                                    </mask>
                                    <path fill="#54C9F4" d="M5.856 8.89c2.332 0 4.329.516 5.182 1.253.29-.523.447-1.105.447-1.714 0-2.43-2.52-4.655-5.629-4.655C2.756 3.774.231 6 .231 8.428c0 .61.16 1.193.447 1.715.855-.737 2.853-1.253 5.178-1.254" mask="url(#t5mwea8g4at)"/>
                                </g>
                                <g transform="translate(-60 -718) translate(12 258) translate(0 444) translate(48 16) translate(34 16) translate(.254 .243)">
                                    <mask id="zdcqjkdpxav" fill="#fff">
                                        <use xlink:href="#1zop0kjloau"/>
                                    </mask>
                                    <path fill="#5CCBF4" d="M5.856 8.904c2.328 0 4.323.514 5.175 1.245.289-.52.446-1.097.446-1.702 0-2.414-2.517-4.626-5.62-4.626C2.76 3.821.238 6.033.238 8.446c0 .606.159 1.185.446 1.703.854-.731 2.85-1.245 5.171-1.245" mask="url(#zdcqjkdpxav)"/>
                                </g>
                                <g transform="translate(-60 -718) translate(12 258) translate(0 444) translate(48 16) translate(34 16) translate(.254 .243)">
                                    <mask id="3mbbx4l9qax" fill="#fff">
                                        <use xlink:href="#chyi6jvuraw"/>
                                    </mask>
                                    <path fill="#64CDF5" d="M5.856 8.919c2.325 0 4.317.51 5.168 1.237.288-.516.446-1.09.446-1.691 0-2.397-2.514-4.597-5.614-4.597-3.092 0-5.61 2.2-5.61 4.595 0 .603.16 1.178.446 1.693.852-.727 2.845-1.237 5.164-1.237" mask="url(#3mbbx4l9qax)"/>
                                </g>
                                <g transform="translate(-60 -718) translate(12 258) translate(0 444) translate(48 16) translate(34 16) translate(.254 .243)">
                                    <mask id="neekt8h8gaz" fill="#fff">
                                        <use xlink:href="#ixzmu8rzeay"/>
                                    </mask>
                                    <path fill="#6CCEF5" d="M5.856 8.934c2.322 0 4.312.506 5.161 1.228.287-.513.445-1.082.445-1.68 0-2.38-2.51-4.567-5.606-4.567-3.088 0-5.602 2.187-5.602 4.566 0 .599.159 1.17.445 1.681.851-.722 2.842-1.228 5.157-1.228" mask="url(#neekt8h8gaz)"/>
                                </g>
                                <g transform="translate(-60 -718) translate(12 258) translate(0 444) translate(48 16) translate(34 16) translate(.254 .243)">
                                    <mask id="ctb14lrvgaB" fill="#fff">
                                        <use xlink:href="#vm1knsj7naA"/>
                                    </mask>
                                    <path fill="#73D0F5" d="M5.856 8.948c2.319 0 4.306.504 5.154 1.22.287-.509.444-1.075.444-1.668 0-2.365-2.507-4.537-5.598-4.537-3.084 0-5.594 2.172-5.594 4.536 0 .595.158 1.161.444 1.67.85-.717 2.838-1.22 5.15-1.22" mask="url(#ctb14lrvgaB)"/>
                                </g>
                                <g transform="translate(-60 -718) translate(12 258) translate(0 444) translate(48 16) translate(34 16) translate(.254 .243)">
                                    <mask id="6i2f4fy9kaD" fill="#fff">
                                        <use xlink:href="#kl9hrbfe9aC"/>
                                    </mask>
                                    <path fill="#7AD2F6" d="M5.856 8.963c2.316 0 4.3.5 5.147 1.212.286-.506.443-1.068.443-1.657 0-2.349-2.503-4.508-5.59-4.508C2.776 4.01.27 6.17.27 8.517c0 .59.158 1.153.443 1.658.848-.712 2.834-1.211 5.143-1.212" mask="url(#6i2f4fy9kaD)"/>
                                </g>
                                <g transform="translate(-60 -718) translate(12 258) translate(0 444) translate(48 16) translate(34 16) translate(.254 .243)">
                                    <mask id="m8wp4mev1aF" fill="#fff">
                                        <use xlink:href="#ni0ngx5f3aE"/>
                                    </mask>
                                    <path fill="#81D3F6" d="M5.856 8.978c2.312 0 4.294.496 5.14 1.203.286-.502.443-1.06.443-1.645 0-2.333-2.5-4.48-5.583-4.48-3.075 0-5.579 2.147-5.579 4.479 0 .586.158 1.145.443 1.646.847-.707 2.83-1.203 5.136-1.203" mask="url(#m8wp4mev1aF)"/>
                                </g>
                                <g transform="translate(-60 -718) translate(12 258) translate(0 444) translate(48 16) translate(34 16) translate(.254 .243)">
                                    <mask id="qpgyo0thsaH" fill="#fff">
                                        <use xlink:href="#eyxiu3oa3aG"/>
                                    </mask>
                                    <path fill="#87D5F6" d="M5.856 8.993c2.31 0 4.288.493 5.133 1.194.285-.498.442-1.052.442-1.633 0-2.317-2.497-4.45-5.575-4.45-3.071 0-5.571 2.133-5.571 4.449 0 .582.158 1.136.442 1.635.846-.702 2.826-1.195 5.13-1.195" mask="url(#qpgyo0thsaH)"/>
                                </g>
                                <g transform="translate(-60 -718) translate(12 258) translate(0 444) translate(48 16) translate(34 16) translate(.254 .243)">
                                    <mask id="do8wyaottaJ" fill="#fff">
                                        <use xlink:href="#ryksyga8oaI"/>
                                    </mask>
                                    <path fill="#8ED7F7" d="M5.856 9.007c2.306 0 4.283.49 5.126 1.187.284-.496.441-1.045.441-1.622 0-2.3-2.493-4.42-5.567-4.42C2.79 4.151.293 6.271.293 8.57c0 .578.157 1.128.44 1.623.846-.697 2.823-1.186 5.123-1.187" mask="url(#do8wyaottaJ)"/>
                                </g>
                                <g transform="translate(-60 -718) translate(12 258) translate(0 444) translate(48 16) translate(34 16) translate(.254 .243)">
                                    <mask id="cllesdsiiaL" fill="#fff">
                                        <use xlink:href="#zx3kmn8ifaK"/>
                                    </mask>
                                    <path fill="#94D9F7" d="M5.856 9.022c2.303 0 4.277.487 5.119 1.178.284-.492.44-1.038.44-1.61 0-2.285-2.49-4.392-5.559-4.392C2.793 4.198.3 6.305.3 8.588c0 .575.158 1.12.44 1.613.844-.692 2.82-1.178 5.116-1.179" mask="url(#cllesdsiiaL)"/>
                                </g>
                                <g transform="translate(-60 -718) translate(12 258) translate(0 444) translate(48 16) translate(34 16) translate(.254 .243)">
                                    <mask id="x10xy7nijaN" fill="#fff">
                                        <use xlink:href="#5f1d6xym0aM"/>
                                    </mask>
                                    <path fill="#9ADBF8" d="M5.856 9.037c2.3 0 4.27.483 5.112 1.17.283-.49.44-1.03.44-1.6 0-2.268-2.487-4.361-5.552-4.361-3.06 0-5.548 2.093-5.548 4.36 0 .57.157 1.113.44 1.601.842-.687 2.815-1.17 5.108-1.17" mask="url(#x10xy7nijaN)"/>
                                </g>
                                <g transform="translate(-60 -718) translate(12 258) translate(0 444) translate(48 16) translate(34 16) translate(.254 .243)">
                                    <mask id="xbkev700xaP" fill="#fff">
                                        <use xlink:href="#5drztztovaO"/>
                                    </mask>
                                    <path fill="#A0DDF8" d="M5.856 9.052c2.297 0 4.265.48 5.105 1.16.283-.484.44-1.022.44-1.586 0-2.253-2.484-4.333-5.545-4.333-3.055 0-5.54 2.08-5.54 4.331 0 .567.156 1.104.439 1.59.84-.683 2.81-1.162 5.101-1.162" mask="url(#xbkev700xaP)"/>
                                </g>
                                <g transform="translate(-60 -718) translate(12 258) translate(0 444) translate(48 16) translate(34 16) translate(.254 .243)">
                                    <mask id="zljig3h01aR" fill="#fff">
                                        <use xlink:href="#yoxlg4ntxaQ"/>
                                    </mask>
                                    <path fill="#A6DEF8" d="M5.856 9.066c2.293 0 4.26.477 5.097 1.153.283-.481.44-1.015.44-1.576 0-2.236-2.48-4.303-5.537-4.303-3.05 0-5.533 2.067-5.533 4.302 0 .562.157 1.096.439 1.578.84-.677 2.807-1.153 5.094-1.154" mask="url(#zljig3h01aR)"/>
                                </g>
                                <g transform="translate(-60 -718) translate(12 258) translate(0 444) translate(48 16) translate(34 16) translate(.254 .243)">
                                    <mask id="s2ou10aeuaT" fill="#fff">
                                        <use xlink:href="#e354siftmaS"/>
                                    </mask>
                                    <path fill="#ACE0F9" d="M5.856 9.081c2.29 0 4.253.473 5.09 1.144.282-.478.439-1.007.439-1.564 0-2.22-2.476-4.274-5.529-4.274C2.81 4.387.331 6.441.331 8.66c0 .558.156 1.088.438 1.566.838-.672 2.803-1.144 5.087-1.145" mask="url(#s2ou10aeuaT)"/>
                                </g>
                                <g transform="translate(-60 -718) translate(12 258) translate(0 444) translate(48 16) translate(34 16) translate(.254 .243)">
                                    <mask id="qtmij9waeaV" fill="#fff">
                                        <use xlink:href="#8mmdyvpqsaU"/>
                                    </mask>
                                    <path fill="#B2E2F9" d="M5.856 9.096c2.287 0 4.248.47 5.083 1.136.282-.475.438-1 .438-1.553 0-2.204-2.473-4.245-5.52-4.245-3.044 0-5.518 2.041-5.518 4.244 0 .554.156 1.08.437 1.555.837-.668 2.8-1.137 5.08-1.137" mask="url(#qtmij9waeaV)"/>
                                </g>
                                <g transform="translate(-60 -718) translate(12 258) translate(0 444) translate(48 16) translate(34 16) translate(.254 .243)">
                                    <mask id="7qfw0ep6vaX" fill="#fff">
                                        <use xlink:href="#k3q03fygoaW"/>
                                    </mask>
                                    <path fill="#B8E4F9" d="M5.856 9.11c2.284 0 4.242.467 5.076 1.128.281-.471.438-.993.438-1.541 0-2.188-2.47-4.215-5.514-4.215-3.039 0-5.51 2.027-5.51 4.214 0 .55.156 1.071.437 1.543.836-.662 2.795-1.128 5.073-1.128" mask="url(#7qfw0ep6vaX)"/>
                                </g>
                                <g transform="translate(-60 -718) translate(12 258) translate(0 444) translate(48 16) translate(34 16) translate(.254 .243)">
                                    <mask id="uz477itgcaZ" fill="#fff">
                                        <use xlink:href="#w86nci9qzaY"/>
                                    </mask>
                                    <path fill="#BDE6FA" d="M5.856 9.125c2.28 0 4.236.463 5.07 1.12.28-.468.436-.986.436-1.53 0-2.172-2.466-4.186-5.506-4.186-3.034 0-5.502 2.014-5.502 4.185 0 .546.156 1.063.435 1.531.836-.657 2.792-1.119 5.067-1.12" mask="url(#uz477itgcaZ)"/>
                                </g>
                                <g transform="translate(-60 -718) translate(12 258) translate(0 444) translate(48 16) translate(34 16) translate(.254 .243)">
                                    <mask id="0dvloui70bb" fill="#fff">
                                        <use xlink:href="#utlp44hg1ba"/>
                                    </mask>
                                    <path fill="#C3E8FA" d="M5.856 9.14c2.277 0 4.23.46 5.062 1.11.28-.463.436-.977.436-1.517 0-2.156-2.463-4.157-5.498-4.157-3.03 0-5.494 2.001-5.494 4.156 0 .542.155 1.055.435 1.52.833-.653 2.788-1.111 5.06-1.112" mask="url(#0dvloui70bb)"/>
                                </g>
                                <g transform="translate(-60 -718) translate(12 258) translate(0 444) translate(48 16) translate(34 16) translate(.254 .243)">
                                    <mask id="fr1bbs54kbd" fill="#fff">
                                        <use xlink:href="#67jwd5ja5bc"/>
                                    </mask>
                                    <path fill="#C9EAFA" d="M5.856 9.155c2.274 0 4.224.456 5.055 1.102.28-.46.436-.97.436-1.506 0-2.14-2.46-4.128-5.49-4.128C2.83 4.623.368 6.611.368 8.75c0 .538.156 1.048.435 1.51.832-.648 2.784-1.103 5.052-1.104" mask="url(#fr1bbs54kbd)"/>
                                </g>
                                <g transform="translate(-60 -718) translate(12 258) translate(0 444) translate(48 16) translate(34 16) translate(.254 .243)">
                                    <mask id="vbvdbxo53bf" fill="#fff">
                                        <use xlink:href="#v6q5805qmbe"/>
                                    </mask>
                                    <path fill="#CEECFB" d="M5.856 9.17c2.271 0 4.219.452 5.048 1.094.279-.458.435-.963.435-1.495 0-2.124-2.456-4.099-5.483-4.099C2.834 4.67.377 6.645.377 8.767c0 .534.155 1.04.434 1.498.83-.643 2.78-1.095 5.045-1.096" mask="url(#vbvdbxo53bf)"/>
                                </g>
                                <g transform="translate(-60 -718) translate(12 258) translate(0 444) translate(48 16) translate(34 16) translate(.254 .243)">
                                    <mask id="e5imi5v2lbh" fill="#fff">
                                        <use xlink:href="#4ckmhnksabg"/>
                                    </mask>
                                    <path fill="#D4EEFB" d="M5.856 9.184c2.268 0 4.213.45 5.04 1.086.28-.454.435-.956.435-1.484 0-2.107-2.453-4.069-5.475-4.069C2.838 4.717.385 6.68.385 8.785c0 .53.155 1.031.433 1.486.83-.638 2.776-1.086 5.038-1.087" mask="url(#e5imi5v2lbh)"/>
                                </g>
                                <g transform="translate(-60 -718) translate(12 258) translate(0 444) translate(48 16) translate(34 16) translate(.254 .243)">
                                    <mask id="8yztuex0lbj" fill="#fff">
                                        <use xlink:href="#sfc6dp0swbi"/>
                                    </mask>
                                    <path fill="#D9F0FB" d="M5.856 9.199c2.265 0 4.207.446 5.034 1.077.278-.45.433-.948.433-1.472 0-2.09-2.449-4.04-5.467-4.04-3.014 0-5.463 1.95-5.463 4.039 0 .526.154 1.023.432 1.474C1.653 9.645 3.597 9.2 5.856 9.2" mask="url(#8yztuex0lbj)"/>
                                </g>
                                <g transform="translate(-60 -718) translate(12 258) translate(0 444) translate(48 16) translate(34 16) translate(.254 .243)">
                                    <mask id="9x2lsun57bl" fill="#fff">
                                        <use xlink:href="#79vy5vmk7bk"/>
                                    </mask>
                                    <path fill="#DFF2FC" d="M5.856 9.214c2.261 0 4.201.442 5.027 1.069.277-.448.433-.941.433-1.46 0-2.076-2.446-4.011-5.46-4.011C2.846 4.812.4 6.747.4 8.82c0 .522.155 1.015.431 1.463.828-.628 2.77-1.07 5.025-1.07" mask="url(#9x2lsun57bl)"/>
                                </g>
                                <g transform="translate(-60 -718) translate(12 258) translate(0 444) translate(48 16) translate(34 16) translate(.254 .243)">
                                    <mask id="ks5bxjkuybn" fill="#fff">
                                        <use xlink:href="#dxonjle36bm"/>
                                    </mask>
                                    <path fill="#E5F4FC" d="M5.856 9.228c2.258 0 4.195.44 5.02 1.061.277-.444.432-.933.432-1.449 0-2.059-2.442-3.981-5.452-3.981-3.006 0-5.448 1.922-5.448 3.98 0 .518.154 1.006.43 1.451.827-.622 2.765-1.06 5.018-1.062" mask="url(#ks5bxjkuybn)"/>
                                </g>
                                <g transform="translate(-60 -718) translate(12 258) translate(0 444) translate(48 16) translate(34 16) translate(.254 .243)">
                                    <mask id="9k410tazybp" fill="#fff">
                                        <use xlink:href="#t5yae81xlbo"/>
                                    </mask>
                                    <path fill="#EAF6FD" d="M5.856 9.243c2.255 0 4.19.436 5.013 1.053.276-.441.431-.926.431-1.438 0-2.043-2.439-3.952-5.444-3.952-3.002 0-5.44 1.91-5.44 3.95 0 .515.153.999.43 1.44.824-.617 2.76-1.052 5.01-1.053" mask="url(#9k410tazybp)"/>
                                </g>
                                <g transform="translate(-60 -718) translate(12 258) translate(0 444) translate(48 16) translate(34 16) translate(.254 .243)">
                                    <mask id="629uxca4abr" fill="#fff">
                                        <use xlink:href="#6uoqqix2ubq"/>
                                    </mask>
                                    <path fill="#F0F8FD" d="M5.856 9.258c2.252 0 4.184.432 5.005 1.044.276-.437.432-.919.432-1.426 0-2.027-2.436-3.923-5.437-3.923C2.86 4.953.423 6.85.423 8.874c0 .51.154.99.43 1.43.823-.614 2.757-1.045 5.003-1.046" mask="url(#629uxca4abr)"/>
                                </g>
                                <g transform="translate(-60 -718) translate(12 258) translate(0 444) translate(48 16) translate(34 16) translate(.254 .243)">
                                    <mask id="1ovysp0eebt" fill="#fff">
                                        <use xlink:href="#v3yy8xwx9bs"/>
                                    </mask>
                                    <path fill="#F6FBFD" d="M5.856 9.273c2.249 0 4.178.429 4.998 1.035.276-.434.431-.91.431-1.414C11.285 6.884 8.853 5 5.856 5 2.863 5 .431 6.883.431 8.892c0 .506.153.983.429 1.418.822-.608 2.753-1.036 4.996-1.037" mask="url(#1ovysp0eebt)"/>
                                </g>
                                <g transform="translate(-60 -718) translate(12 258) translate(0 444) translate(48 16) translate(34 16) translate(.254 .243)">
                                    <mask id="p8vhrobzabv" fill="#fff">
                                        <use xlink:href="#jmat38lhqbu"/>
                                    </mask>
                                    <path fill="#FEFEFE" d="M5.856 9.287c2.246 0 4.172.426 4.991 1.028.275-.43.43-.904.43-1.403 0-1.995-2.429-3.864-5.42-3.864-2.99 0-5.418 1.87-5.418 3.862 0 .502.153.974.428 1.406.82-.603 2.749-1.028 4.99-1.029" mask="url(#p8vhrobzabv)"/>
                                </g>
                                <path fill="#0083C9" d="M5.829 7.298c-1.965 0-3.787.334-5.29.899.903 2.021 2.93 3.43 5.291 3.43 2.357 0 4.381-1.41 5.287-3.43-1.503-.565-3.328-.9-5.288-.9" transform="translate(-60 -718) translate(12 258) translate(0 444) translate(48 16) translate(34 16) translate(.254 .243)"/>
                            </g>
                        </g>
                        <path fill="#88B1FD" d="M14 22v2H3v-2h11zm5-4v2H3v-2h16zM50 7v6H0V7h50z" transform="translate(-60 -718) translate(12 258) translate(0 444) translate(48 16)"/>
                    </g>
                </g>
            </g>
        </g>
    </g>
</svg>
