<svg xmlns="http://www.w3.org/2000/svg" xmlns:xlink="http://www.w3.org/1999/xlink" width="50" height="32" viewBox="0 0 50 32">
    <defs>
        <path id="coawdas3ra" d="M0 0.093L11.909 0.093 11.909 12 0 12z"/>
        <path id="32704dl0jc" d="M0.127 0.269L0.127 0.28 0.127 0.267z"/>
        <linearGradient id="3gmno8uikd" x1="-3317.47%" x2="-7349.179%" y1="2750.913%" y2="5984.678%">
            <stop offset="0%" stop-color="#F7F7F7"/>
            <stop offset="100%" stop-color="#DBDCDC"/>
        </linearGradient>
    </defs>
    <g fill="none" fill-rule="evenodd">
        <g>
            <g>
                <g>
                    <g>
                        <path fill="#FFF" d="M4.007 0C1.794 0 0 1.789 0 4.004v23.992C0 30.207 1.794 32 4.007 32h41.986C48.206 32 50 30.211 50 27.996V4.004C50 1.793 48.206 0 45.993 0H4.007z" transform="translate(-60 -1014) translate(12 258) translate(0 740) translate(48 16)"/>
                        <g>
                            <g>
                                <g transform="translate(-60 -1014) translate(12 258) translate(0 740) translate(48 16) translate(35 17) translate(0 .007)">
                                    <mask id="g9mk12sfpb" fill="#fff">
                                        <use xlink:href="#coawdas3ra"/>
                                    </mask>
                                    <path fill="#E73E44" d="M11.909 6.047C11.909 9.334 9.241 12 5.954 12 2.666 12 0 9.334 0 6.047 0 2.758 2.666.092 5.954.092c3.287 0 5.955 2.666 5.955 5.955" mask="url(#g9mk12sfpb)"/>
                                </g>
                                <g transform="translate(-60 -1014) translate(12 258) translate(0 740) translate(48 16) translate(35 17) translate(8.727 4.866)">
                                    <mask id="c4vcuvw3le" fill="#fff">
                                        <use xlink:href="#32704dl0jc"/>
                                    </mask>
                                    <path fill="url(#3gmno8uikd)" d="M0.127 0.269L0.127 0.28 0.127 0.267z" mask="url(#c4vcuvw3le)"/>
                                </g>
                                <g fill="#FEFEFE">
                                    <path d="M.596 4.59l.01.13c-.001.03.015.058.041.068.024.011.05.006.073-.014.222-.186.559-.353.83-.26.211.074.355.292.43.65.155.752-.36 1.114-.682 1.26l-.01.006-.413.202s-.023.01-.048-.002c-.025-.013-.033-.03-.05-.074-.28-1.033-.375-2.117-.27-3.13.01-.076.045-.168.104-.243l.346-.369.038-.042c.188-.182.364-.274.46-.234.078.033.098.16.099.26.016.538-.285 1.088-.916 1.68 0 0-.048.04-.042.112m1.894-.747c-.187-.112-.399-.144-.613-.113.39-.416.602-.868.602-1.324 0-.041 0-.083-.006-.126-.02-.283-.15-.496-.354-.568-.202-.076-.575-.038-1.166.566L.6 2.676c-.099.12-.472.684-.54 1.272-.116 1-.042 1.997.212 2.881.03.104.125.353.354.446.243.099.475-.02.68-.126l.054-.028.21-.094.206-.09.25-.11c.178-.073.347-.14.51-.278.219-.186.379-.43.461-.706.043-.143.072-.3.087-.477.014-.138.028-.405-.024-.64-.112-.518-.37-.766-.569-.883M7.164.705c-.116-.396-.305-.48-.36-.498C6.31.05 5.797.017 5.298.104 4.548.242 3.9.635 3.471 1.21c-.452.606-.626 1.361-.492 2.126.136.767.523 1.389 1.125 1.795.706.475 1.644.62 2.648.41.593-.13 1.083-.36 1.462-.687.169-.147.201-.334.201-.465 0 0 .01-.106-.073-.44-.022-.081-.057-.105-.114-.105-.042 0-.085.047-.093.057-.283.328-.714.556-1.252.662-1.382.265-2.444-.38-2.708-1.645-.112-.548-.02-1.073.267-1.48.287-.414.757-.687 1.324-.772.431-.063.87-.01 1.265.155 0 0 .169.049.133-.117" transform="translate(-60 -1014) translate(12 258) translate(0 740) translate(48 16) translate(35 17) translate(.397 .8)"/>
                                </g>
                            </g>
                        </g>
                        <path fill="#F2CDCE" d="M14 22v2H3v-2h11zm5-4v2H3v-2h16zM50 7v6H0V7h50z" transform="translate(-60 -1014) translate(12 258) translate(0 740) translate(48 16)"/>
                    </g>
                </g>
            </g>
        </g>
    </g>
</svg>
