<svg xmlns="http://www.w3.org/2000/svg" width="50" height="32" viewBox="0 0 50 32">
    <g fill="none" fill-rule="evenodd">
        <g>
            <g>
                <g>
                    <g>
                        <path fill="#EC1D24" d="M4.007 0C1.794 0 0 1.789 0 4.004v23.992C0 30.207 1.794 32 4.007 32h41.986C48.206 32 50 30.211 50 27.996V4.004C50 1.793 48.206 0 45.993 0H4.007z" transform="translate(-60 -570) translate(12 258) translate(0 296) translate(48 16)"/>
                        <g>
                            <path fill="#FFF" d="M6.861 0c1.726 0 2.777 1.056 2.743 2.37.03 1.319-1.013 2.384-2.748 2.387C5.114 4.75 4.057 3.685 4.07 2.38 4.05 1.058 5.117.001 6.86 0zm2.992.164l4.778.004v.518l-1.566.01.005 3.853-1.373.009L11.69.685 9.88.698 9.852.164zm5.23.005l4.776.004.015.513L18.04.7l-.016 3.835-1.366.011-.005-3.853-1.566.012-.005-.537zM1.326.164V3.78c.001.146.113.242.258.24l2.315.006.003.51-3.364.012c-.292.002-.55-.238-.535-.523L0 .163h1.326zM20.905.17l3.631.005-.012.504-2.539.011c-.133-.003-.258.116-.265.259l-.025 1.016 2.786.006-.006.515-2.742.002-.015 1.284c.013.14.126.255.258.266l2.562-.002-.019.501-3.6.008c-.283.004-.543-.227-.538-.516l.012-3.356c0-.272.227-.497.512-.503zM6.842.502c-.836.004-1.464.829-1.452 1.869-.02 1.029.614 1.858 1.455 1.865.827.002 1.485-.831 1.461-1.866C8.29 1.338 7.676.506 6.842.502z" transform="translate(-60 -570) translate(12 258) translate(0 296) translate(48 16) translate(22 17)"/>
                            <path fill="#3C3935" d="M22.027 6.14c.736.001 1.366.221 1.832.639.403.371.626.87.671 1.472l.008.204-.006.016c.012.648-.235 1.203-.729 1.623-.399.355-.896.556-1.469.602l-.218.01-3.205-.006V6.14h3.116zm-9.306.002l3.737.007c.537-.007.937.138 1.182.403.27.264.387.602.393 1.046-.012.687-.342 1.24-1.074 1.377l1.22 1.587.089.134-1.059.001-1.29-1.676-2.297.003.003-.818 2.654.006c.614-.016.822-.18.833-.617-.013-.447-.23-.61-.848-.631l-2.642.015-.019 3.723-.881-.007-.001-4.553zm-3.118.009l2.546 4.446.058.095h-.203l-.786.008-.59-.988-3.091.017-.582.966H5.94l2.63-4.542 1.033-.002zM2.57 6.135l2.889.01.01.832L2.5 6.965c-.472.003-.834.14-1.116.406-.284.273-.43.625-.432 1.086.024.413.156.737.406 1.014.288.27.597.382 1.018.388l3.109.016-.043.823-3-.004c-.686.007-1.255-.2-1.7-.6C.265 9.663.014 9.11 0 8.462c.006-.699.234-1.27.704-1.68.46-.432 1.094-.652 1.867-.646zm17.22.83l.015 2.9 2.368-.004c.439.011.746-.125 1-.392.29-.263.391-.594.421-1.008-.017-.457-.147-.808-.451-1.086-.248-.226-.557-.363-.945-.397l-.171-.009-2.237-.004zM9.077 6.99L7.97 8.892l2.218.006L9.077 6.99z" transform="translate(-60 -570) translate(12 258) translate(0 296) translate(48 16) translate(22 17)"/>
                        </g>
                        <path fill="#A82429" d="M14 22v2H3v-2h11zm5-4v2H3v-2h16zM50 7v6H0V7h50z" transform="translate(-60 -570) translate(12 258) translate(0 296) translate(48 16)"/>
                    </g>
                </g>
            </g>
        </g>
    </g>
</svg>
